<?xml version="1.0" encoding="UTF-8"?>
<svg width="1200pt" height="1200pt" version="1.1" viewBox="0 0 1200 1200" xmlns="http://www.w3.org/2000/svg">
 <path d="m181.64 90.195 209.88 111.77c39.98 21.289 72.391 75.27 72.391 120.57v604h267.86c24.145 0 43.719-19.598 43.719-43.715v-200.87c0-22.652 18.359-41.035 41.004-41.035h8.1836c22.754 0 41.008 18.359 41.008 41.008v252.78c0 45.301-36.699 82.02-81.984 82.02h-319.79v131.17c0 45.297-32.395 64.77-72.391 43.469l-343.49-182.93c-1.6914-0.82812-3.3516-1.7109-4.9766-2.6484l-11.254-7.8242c-18.195-15.043-29.789-37.793-29.789-63.258v-852.69c0-45.297 36.695-82.02 81.98-82.02h699.71c45.277 0 81.984 36.711 81.984 82.02v252.79c0 22.625-18.359 41.004-41.008 41.004h-8.1836c-22.754 0-41.004-18.371-41.004-41.035v-200.86c0-24.145-19.578-43.715-43.719-43.715zm763.3 482.47h-218.66c-36.219 0-65.582-29.359-65.582-65.594 0-36.227 29.375-65.598 65.582-65.598h218.66v-56.039c0-45.277 30.129-61.008 67.277-35.141l157.89 109.93c37.156 25.871 37.148 67.82 0 93.688l-157.89 109.93c-37.156 25.871-67.277 10.117-67.277-35.141z" fill="#fff"/>
</svg>
