<?xml version="1.0" encoding="UTF-8"?>
<svg width="1200pt" height="1200pt" version="1.1" viewBox="0 0 1200 1200" xmlns="http://www.w3.org/2000/svg">
 <g fill="#fff">
  <path d="m925 1200c-151.6 0-275-123.4-275-275s123.4-275 275-275 275 123.4 275 275-123.4 275-275 275zm0-500c-124.05 0-225 100.95-225 225s100.95 225 225 225 225-100.95 225-225-100.95-225-225-225z"/>
  <path d="m925 1075c-13.801 0-25-11.199-25-25v-250c0-13.801 11.199-25 25-25s25 11.199 25 25v250c0 13.801-11.199 25-25 25z"/>
  <path d="m1050 950h-250c-13.801 0-25-11.199-25-25s11.199-25 25-25h250c13.801 0 25 11.199 25 25s-11.199 25-25 25z"/>
  <path d="m700 1075h-675c-13.801 0-25-11.199-25-25v-94.273c0-73 45.273-138.12 115.32-165.95 63.301-25.102 184.38-101.23 236.57-227.2l46.199 19.148c-54.801 132.2-176.65 219.75-264.35 254.55-50.871 20.199-83.746 67.074-83.746 119.45v69.273h650z"/>
  <path d="m733.98 769.2c-51.227-42.676-101.8-114.5-132.07-187.5l46.199-19.148c27.352 65.977 72.523 130.4 117.93 168.23z"/>
  <path d="m500 650c-157.4 0-275-197.98-275-375 0-167.05 107.95-275 275-275s275 107.95 275 275c0 177.02-117.6 375-275 375zm0-600c-108.77 0-225 59.102-225 225 0 147.2 100.38 325 225 325 124.6 0 225-177.8 225-325 0-165.9-116.23-225-225-225z"/>
 </g>
</svg>
