<?xml version="1.0" encoding="UTF-8"?>
<svg width="1200pt" height="1200pt" version="1.1" viewBox="0 0 1200 1200" xmlns="http://www.w3.org/2000/svg">
 <g fill="#fff">
  <path d="m855.76 505.5c0.070313 0.89844 0.15625 1.7891 0.22656 2.6758 5.9883 67.766 45.648 120.11 93.66 120.11s87.66-52.344 93.648-120.11c0.085937-0.88672 0.15625-1.7773 0.22656-2.6758 0.43359-2.9414 0.71875-5.9141 0.88672-8.9297 0.12109-2.0625 0.20312-4.1406 0.20312-6.2383 0-5.1484-0.37109-10.211-1.0938-15.168-6.9258-48.012-46.32-84.793-93.863-84.793-47.543 0-86.93 36.77-93.875 84.793-0.71875 4.957-1.0781 10.008-1.0781 15.168 0 2.1016 0.085937 4.1758 0.19141 6.2383 0.16797 3.0273 0.44531 5.9883 0.86719 8.9297zm35.301-53.891s27.324 13.273 58.586 14.125c31.246-0.85156 58.586-14.125 58.586-14.125 19.801 7.8125 10.402 63.504 10.402 63.504 4.957-3.4453 9.4922-5.2422 13.188-6.168-5.4492 59.195-40.164 104.82-82.176 104.82-42.023 0-76.727-45.625-82.176-104.82 3.6953 0.92578 8.2305 2.7227 13.176 6.168 0 0.011719-9.3984-55.691 10.414-63.504z"/>
  <path d="m1031.8 615.97c-0.21484-0.035156-0.44531-0.046875-0.66016-0.085937-1.7539-0.23828-3.5039-0.44531-5.2812-0.61328 0 0.19141-0.046875 0.37109-0.058594 0.53906-0.023438 0.52734-0.12109 1.0312-0.17969 1.5586-0.32422 2.9414-1.2109 5.7969-2.5664 8.543-9.2383 23.258-39.109 67.297-56.711 92.293l-3.625-51.949c5.1367-2.6289 9.5508-6.9961 12.383-12.047 2.0391-3.6484 3.2773-7.6211 3.2773-11.664 0 0-13.129 5.8086-26.52 5.8086-0.75781 0-1.5234-0.023438-2.2812-0.058594-0.75781 0.035156-1.5234 0.058594-2.293 0.058594-13.391 0-26.52-5.8086-26.52-5.8086 0 4.043 1.2461 8.0156 3.2773 11.664 2.832 5.0508 7.2461 9.4219 12.383 12.047l-3.625 51.949c-17.594-24.996-47.461-69.047-56.688-92.293-1.3789-2.7461-2.2578-5.6055-2.5938-8.543-0.058594-0.52734-0.14453-1.0312-0.17969-1.5586 0-0.16797-0.046874-0.34766-0.058593-0.53906-1.7773 0.16797-3.5391 0.37109-5.2695 0.61328-0.22656 0.035156-0.44531 0.046875-0.66016 0.085937-32.734 4.5586-61.32 21.793-80.914 46.488 40.703 32.473 65.578 82.246 65.578 135.42 0 4.0195-0.19141 7.7773-0.46875 11.449 10.621 0.30078 21.77 0.3125 33.301 0.3125h129.42c69.422 0.007813 125.69 0.16406 125.69-69.246 0-63.453-47.039-115.92-108.16-124.43z"/>
  <path d="m409.03 664.12c-20.508-25.777-51-43.262-85.691-46.441-0.50391 22.633-34.031 40.883-75.336 40.883-41.305 0-74.832-18.254-75.324-40.883-63.18 5.7734-112.68 58.91-112.68 123.58 0 68.555 55.559 68.375 124.11 68.375h127.81c11.832 0 23.27 0 34.105-0.34766-0.27734-3.6484-0.46875-7.4023-0.46875-11.398 0.007812-52.273 24.035-101.25 63.477-133.77z"/>
  <path d="m154.14 505.5c0.070313 0.89844 0.14453 1.7891 0.22656 2.6758 5.9883 67.766 45.637 120.11 93.66 120.11 48.012 0 87.66-52.344 93.66-120.11 0.085938-0.88672 0.15625-1.7773 0.22656-2.6758 0.43359-2.9414 0.70703-5.9141 0.88672-8.9414 0.12109-2.0625 0.20312-4.1406 0.20312-6.2383 0-5.1484-0.37109-10.223-1.0781-15.168-6.9375-48.012-46.32-84.805-93.875-84.805-47.555 0-86.941 36.781-93.875 84.805-0.71875 4.9453-1.0938 10.008-1.0938 15.168 0 2.1016 0.085938 4.1641 0.20312 6.2383 0.13672 3.0273 0.42188 6 0.85547 8.9414zm35.305-53.891s27.324 13.273 58.57 14.125c31.246-0.85156 58.57-14.125 58.57-14.125 19.812 7.8125 10.43 63.504 10.43 63.504 4.957-3.4453 9.4922-5.2422 13.176-6.168-5.4492 59.195-40.152 104.82-82.176 104.82s-76.727-45.637-82.176-104.82c3.6953 0.92578 8.2305 2.7227 13.188 6.1797-0.011719 0-9.3945-55.703 10.418-63.516z"/>
  <path d="m833.17 781.49c-0.27734-2.6289-0.5625-5.2578-0.97266-7.8242-0.25391-1.668-0.60156-3.2656-0.91016-4.9062-0.42187-2.2578-0.86328-4.5117-1.3906-6.7305-0.40625-1.7656-0.875-3.5039-1.3555-5.2422-0.55078-2.0273-1.1406-4.0312-1.7656-6.0117-0.58984-1.8242-1.2109-3.6484-1.8477-5.4492-0.66016-1.7891-1.3438-3.5898-2.0508-5.3633-0.75781-1.8828-1.5469-3.7578-2.375-5.6055-0.70703-1.5859-1.4648-3.1094-2.2188-4.6562-0.97266-1.9805-1.9453-3.9492-2.9883-5.8672-0.67188-1.2344-1.3906-2.4258-2.1016-3.6484-1.2461-2.1602-2.4961-4.2969-3.8398-6.3828-0.33594-0.53906-0.71875-1.043-1.0664-1.5703-7.7031-11.578-16.883-22.066-27.312-31.199 0 0-0.023437-0.011719-0.035156-0.023438-2.5938-2.2695-5.2695-4.4297-8.0156-6.5156-0.19141-0.15625-0.37109-0.30078-0.5625-0.44531-2.7109-2.0391-5.4727-3.9727-8.3047-5.8438-0.22656-0.14453-0.44531-0.28906-0.67188-0.44531-2.8672-1.8594-5.7969-3.6484-8.7852-5.3047-0.16797-0.097656-0.3125-0.17969-0.46875-0.25391-9.0352-5.0156-18.551-9.2656-28.586-12.422 26.652 2.9766 50.039 7.5859 50.039 7.5859-5.9648-3.2773-11.195-7.5352-15.852-12.457-36.996-39-35.953-121.71-35.953-121.71 9.2891-203.23-124.82-192.6-124.82-192.6l-0.097656 0.3125-0.097656-0.3125s-134.12-10.621-124.82 192.6c0 0 1.043 82.523-35.82 121.57-4.6914 4.9805-9.9727 9.2773-15.984 12.602 0 0 14.305-0.97266 33.457-1.332-20.914 9.3242-39.348 23.207-54.145 40.297-0.023437 0.035156-0.046874 0.070313-0.085937 0.10938-2.3047 2.6758-4.5469 5.4258-6.6719 8.2578-0.12109 0.15625-0.22656 0.3125-0.33594 0.48047-2.0273 2.7227-3.9844 5.4961-5.832 8.3281-0.21484 0.33594-0.42188 0.70703-0.625 1.043-1.7266 2.6992-3.3828 5.4102-4.9453 8.2305-0.30078 0.55078-0.57422 1.1289-0.875 1.6914-1.4141 2.6289-2.7969 5.2812-4.0547 7.9922-0.37109 0.79297-0.69531 1.6445-1.0547 2.4492-1.1172 2.5195-2.2305 5.0391-3.2148 7.6328-0.40625 1.0938-0.75781 2.207-1.1523 3.3008-0.82812 2.3633-1.6914 4.7383-2.4258 7.1406-0.42188 1.4023-0.75781 2.8438-1.1289 4.2461-0.58984 2.1719-1.2109 4.332-1.7148 6.5391-0.39453 1.7539-0.67188 3.5625-0.99609 5.3398-0.35938 1.9219-0.76953 3.8047-1.0664 5.7617-0.33594 2.2578-0.52734 4.5703-0.76953 6.8633-0.15625 1.5117-0.38281 3-0.50391 4.5117-0.28906 3.8516-0.43359 7.7383-0.43359 11.652 0 3.5273 0.15625 6.8164 0.39453 10.02 0.058594 0.81641 0.13281 1.6328 0.20312 2.4258 0.27734 2.8906 0.625 5.7109 1.0781 8.3398 0.035156 0.19141 0.046875 0.39453 0.085937 0.58984 0.51563 2.7852 1.1641 5.375 1.8828 7.8711 0.19141 0.63672 0.38281 1.2461 0.57422 1.8594 0.69531 2.1719 1.4648 4.2461 2.3281 6.2031 0.10938 0.25391 0.20312 0.52734 0.3125 0.78125 0.98438 2.125 2.0898 4.1055 3.2539 5.9766 0.28906 0.46875 0.60156 0.92578 0.91016 1.3789 1.0664 1.5703 2.1836 3.0703 3.3945 4.4648 0.21484 0.25391 0.42188 0.52734 0.63672 0.76953 1.4023 1.5703 2.9141 3.0117 4.5 4.3438 0.39453 0.33594 0.80469 0.66016 1.2227 0.97266 1.3789 1.1055 2.8086 2.1367 4.3086 3.0859 0.33594 0.22656 0.67188 0.45703 1.0078 0.67188 1.7891 1.0664 3.6719 2.0508 5.6172 2.9531 0.49219 0.22656 0.99609 0.43359 1.5 0.64844 1.6445 0.71875 3.3242 1.3672 5.0742 1.9688 0.49219 0.16797 0.96094 0.33594 1.4531 0.50391 2.125 0.68359 4.3086 1.2617 6.5508 1.8008 0.60156 0.14453 1.2109 0.26562 1.8242 0.39453 1.8359 0.40625 3.7188 0.76953 5.6523 1.0938 0.66016 0.12109 1.2969 0.23828 1.9688 0.32422 2.375 0.35938 4.8125 0.68359 7.3086 0.9375 0.74219 0.085937 1.5117 0.14453 2.2695 0.21484 1.9453 0.17969 3.9258 0.32422 5.9297 0.45703 0.88672 0.046875 1.7539 0.10938 2.6406 0.15625 2.5547 0.14453 5.1484 0.23828 7.8125 0.30078 0.97266 0.023438 1.9805 0.035156 2.9766 0.058594 1.8945 0.023437 3.8047 0.046875 5.7461 0.058594 1.1055 0 2.207 0.011718 3.3242 0 3.8633 0 7.8008-0.046876 11.82-0.13281 1.6211-0.023437 3.2383-0.046875 4.8711-0.085937 2.5664-0.058594 5.1719-0.12109 7.8008-0.19141 11.891-0.28906 24.312-0.625 37.105-0.625h159.96c12.77 0 25.188 0.32422 37.078 0.625 2.6641 0.070313 5.3047 0.13281 7.9219 0.19141 1.6094 0.035156 3.1914 0.058593 4.7773 0.085937 4.0078 0.085937 7.957 0.13281 11.809 0.13281 1.1289 0.011718 2.2305 0 3.3125 0 1.9453-0.011719 3.8516-0.035157 5.7461-0.058594 0.99609-0.023438 2.0039-0.035156 2.9883-0.058594 2.6523-0.070312 5.2305-0.16797 7.7773-0.30078 0.91016-0.046875 1.8008-0.10938 2.7109-0.16797 1.9688-0.12109 3.9258-0.26562 5.8438-0.44531 0.76953-0.070313 1.5586-0.13281 2.3281-0.21484 2.4727-0.25391 4.8945-0.5625 7.2461-0.92578 0.70703-0.10937 1.3789-0.23828 2.0742-0.34766 1.8828-0.3125 3.7188-0.67188 5.5195-1.0664 0.64844-0.14453 1.2852-0.26562 1.9219-0.42188 2.2305-0.52734 4.3789-1.1172 6.4805-1.7773 0.53906-0.17969 1.0547-0.35938 1.5859-0.55078 1.6797-0.57422 3.3125-1.2227 4.9062-1.8945 0.53906-0.23828 1.0938-0.45703 1.6211-0.70703 1.9062-0.88672 3.7578-1.8477 5.5312-2.9023 0.38281-0.23828 0.75781-0.49219 1.1289-0.74219 1.4414-0.92578 2.832-1.9336 4.1875-2.9883 0.43359-0.34766 0.86328-0.68359 1.2852-1.043 1.5703-1.332 3.0586-2.7461 4.4531-4.2969 0.25391-0.26562 0.46875-0.57422 0.70703-0.85156 1.1875-1.3672 2.2812-2.832 3.3125-4.3672 0.3125-0.46875 0.64844-0.94922 0.94922-1.4414 1.1758-1.8594 2.2578-3.8281 3.2383-5.9414 0.13281-0.26562 0.23828-0.57422 0.34766-0.85156 0.85156-1.9219 1.6211-3.9727 2.2812-6.1211 0.21484-0.625 0.40625-1.2461 0.60156-1.8945 0.71875-2.4961 1.3672-5.0742 1.8711-7.8477 0.046875-0.20312 0.058594-0.42188 0.097656-0.63672 0.46875-2.6172 0.80469-5.4102 1.0781-8.293 0.085937-0.80469 0.15625-1.6211 0.21484-2.4492 0.22656-3.1914 0.38281-6.4805 0.38281-10.008 0-4.1289-0.19141-8.207-0.50391-12.254-0.15234-1.4102-0.36719-2.7891-0.5-4.168zm-143.98-124.13c-0.98437 1.7891-2.1602 3.5625-3.4688 5.2812-0.10937 0.14453-0.22656 0.27734-0.32422 0.42188-2.6758 3.3945-5.9883 6.625-9.8633 9.6016-0.13281 0.10938-0.25391 0.21484-0.38281 0.3125-1.8828 1.4297-3.9258 2.7852-6.0469 4.1055-0.28906 0.17969-0.60156 0.34766-0.89844 0.55078-2.1836 1.2852-4.4414 2.543-6.8398 3.7188-0.046875 0.023438-0.10938 0.046876-0.15625 0.070313-2.3164 1.1289-4.7539 2.1719-7.2461 3.1562-0.44531 0.17969-0.875 0.35938-1.332 0.52734-2.4727 0.94922-5.0273 1.8242-7.668 2.6406-0.57422 0.19141-1.1641 0.34766-1.7383 0.52734-2.6289 0.76953-5.3047 1.4883-8.0625 2.125-0.13281 0.023437-0.25391 0.058593-0.38281 0.097656l-35.93 58.391-35.941-58.391c-19.57-4.4297-35.82-12.395-46.152-22.441-3.4453-3.3477-6.2266-6.9258-8.2578-10.68 12.422 1.0664 23.641 2.8789 31.766 5.7227 3.2891 1.1406 6.0117 2.4727 8.1367 3.9844 1.5234 1.0938 2.832 2.2578 3.6367 3.5508l-1.1172-2.4844-18.672-41.652c18.961 18.938 41.879 30.035 66.59 30.035 24.133 0 46.57-10.598 65.281-28.738l-13.801 28.738c3.1094-5.1133 12-7.6797 23.617-8.6875 5.7227-0.50391 12.059-0.66016 18.793-0.48047-0.59766 3.4219-1.8242 6.7812-3.5391 9.9961zm12.781-153.9c-2.0273 26.902-8.8672 51.684-19.246 72.469-18.863 37.812-49.414 62.398-83.914 62.398-52.57 0-96.012-57.121-102.84-131.2 0 0 41.508-6.875 66.301-16.656 0 0 44.93-15.012 99.781-54.504 0.26562-0.19141 0.53906-0.38281 0.81641-0.58984 0 0 0.97266 1.4141 2.375 3.8164 4.7539 8.1602 14.953 32.484-4.3203 43.609l35.125 4.4648h0.64844l6.4219 1.1875c-0.070312 5.0859-0.42969 10.09-1.1484 15z"/>
 </g>
</svg>
