<?xml version="1.0" encoding="UTF-8"?>
<svg width="1200pt" height="1200pt" version="1.1" viewBox="0 0 1200 1200" xmlns="http://www.w3.org/2000/svg">
 <g fill="#fff">
  <path d="m813.87 782.21c-25.012-38.746-55.309-63.922-98.652-78.172 0 0-32.691-16.812-118.12-16.812-85.441 0-118.15 16.812-118.15 16.812-43.332 14.398-73.641 39.414-98.68 78.172-9.9062 15.254-15.266 45.934-15.625 62.32 0.13281 4.2656 0 9.2148 0 14.148v28.266-19.508c0 31.254 21.332 56.547 47.652 56.547h369.52c26.332 0 47.652-25.293 47.652-56.547v19.508-28.266c0-4.9336-0.09375-9.8789 0-14.148-0.34375-16.387-5.6914-47.082-15.598-62.32m-347.04-309.48c0 72.453 45.16 178.87 130.27 178.87 83.602 0 130.21-106.43 130.21-178.87s-58.293-131.25-130.21-131.25c-71.945 0-130.27 58.812-130.27 131.25" fill-rule="evenodd"/>
  <path d="m453.41 670.89c-21-26.652-46.188-44.934-79.906-56 0 0-30.559-15.719-110.39-15.719-79.867 0-110.43 15.719-110.43 15.719-40.492 13.441-68.828 36.828-92.215 73.039-9.2656 14.254-14.266 42.934-14.613 58.254 0.12109 4 0 8.6133 0 13.227v8.1719c0 29.199 19.934 52.84 44.547 52.84h223c3.1719-18.492 8.8125-38.801 16.84-51.133 31.332-48.547 69.281-80.027 123.16-98.398z"/>
  <path d="m263.11 565.87c78.133 0 121.69-99.48 121.69-167.17 0-67.707-54.492-122.68-121.69-122.68-67.254 0-121.76 54.973-121.76 122.68 0.015625 67.703 42.23 167.17 121.76 167.17z"/>
  <path d="m741.12 670.89c21-26.652 46.188-44.934 79.906-56 0 0 30.547-15.719 110.39-15.719 79.852 0 110.43 15.719 110.43 15.719 40.508 13.441 68.828 36.828 92.215 73.039 9.2656 14.254 14.266 42.934 14.613 58.254-0.12109 4 0 8.6133 0 13.227v8.1719c0 29.199-19.934 52.84-44.547 52.84h-222.99c-3.1719-18.492-8.8125-38.801-16.84-51.133-31.348-48.547-69.293-80.027-123.17-98.398z"/>
  <path d="m931.43 565.87c-78.133 0-121.69-99.48-121.69-167.17 0-67.707 54.492-122.68 121.69-122.68 67.254 0 121.76 54.973 121.76 122.68 0 67.703-42.215 167.17-121.76 167.17z"/>
 </g>
</svg>
