<?xml version="1.0" encoding="UTF-8"?>
<svg width="1200pt" height="1200pt" version="1.1" viewBox="0 0 1200 1200" xmlns="http://www.w3.org/2000/svg">
 <g fill="#fff">
  <path d="m1078.9 1001.1-106.84-641.1h-132.12c0-132.57-107.46-240-239.99-240-132.54 0-240 107.41-240 239.99h-132.07l-106.84 641.11c-7.2578 43.355 22.812 78.898 66.844 78.898h824.18c43.98 0 74.051-35.543 66.828-78.898zm-478.95-801.1c88.344 0 160 71.641 160 160h-320c0-88.367 71.652-160 160.01-160zm-397.66 799.99 93.348-559.99h64.297v79.992h80.004v-79.992h320v79.992h79.992v-79.992h64.332l93.324 559.99z"/>
  <path d="m684.98 610h-132.58l47.578-47.578-42.422-42.422-91.727 91.727c-15.625 15.625-15.625 40.934 0 56.555l91.727 91.727 42.371-42.422-47.578-47.578h132.62c52.453 0 94.992 42.504 94.992 95.004 0 52.414-42.539 94.992-94.992 94.992l-324.99 0.003906v60h325c85.621 0 154.99-69.371 154.99-154.99 0-85.645-69.371-155.02-154.99-155.02z"/>
 </g>
</svg>
