<?xml version="1.0" encoding="UTF-8"?>
<svg width="1200pt" height="1200pt" version="1.1" viewBox="0 0 1200 1200" xmlns="http://www.w3.org/2000/svg">
 <g fill="#fff">
  <path d="m1122 520.8h-108l-135.6-202.8c28.844-31.129 40.793-74.312 32.055-115.84-8.7422-41.527-37.086-76.234-76.027-93.094-38.945-16.859-83.645-13.781-119.91 8.2617-36.262 22.043-59.578 60.305-62.539 102.64-2.9648 42.332 14.793 83.473 47.633 110.35 32.84 26.879 76.68 36.156 117.59 24.883l109.2 164.4-654 0.003906 109.2-164.4 0.003906-0.003906c40.91 11.273 84.75 1.9961 117.59-24.883 32.84-26.875 50.602-68.016 47.637-110.35-2.9609-42.336-26.277-80.598-62.539-102.64-36.266-22.043-80.969-25.121-119.91-8.2617-38.945 16.859-67.285 51.566-76.027 93.094-8.7383 41.527 3.2109 84.711 32.051 115.84l-134.4 202.8h-108c-12.863 0-24.746 6.8594-31.176 18-6.4336 11.137-6.4336 24.859 0 36 6.4297 11.137 18.312 18 31.176 18h49.199l67.199 379.2c6.4766 36.02 25.41 68.617 53.488 92.09s63.516 36.324 100.11 36.309h504c36.598 0.015624 72.035-12.836 100.11-36.309s47.012-56.07 53.488-92.09l67.199-379.2h49.199c12.863 0 24.746-6.8633 31.176-18 6.4336-11.141 6.4336-24.863 0-36-6.4297-11.141-18.312-18-31.176-18zm-397.2-291.6c0-15.594 6.1953-30.551 17.223-41.578 11.027-11.027 25.98-17.223 41.578-17.223 15.594 0 30.551 6.1953 41.578 17.223 11.023 11.027 17.219 25.984 17.219 41.578s-6.1953 30.551-17.219 41.578c-11.027 11.027-25.984 17.223-41.578 17.223-15.598 0-30.551-6.1953-41.578-17.223-11.027-11.027-17.223-25.984-17.223-41.578zm-308.4-57.598c15.598 0 30.551 6.1953 41.578 17.219 11.027 11.027 17.223 25.984 17.223 41.578 0 15.598-6.1953 30.551-17.223 41.578-11.027 11.027-25.98 17.223-41.578 17.223-15.594 0-30.551-6.1953-41.578-17.223-11.023-11.027-17.219-25.98-17.219-41.578 0-15.594 6.1953-30.551 17.219-41.578 11.027-11.023 25.984-17.219 41.578-17.219zm518.4 787.2c-3.3945 19.496-13.559 37.168-28.707 49.898-15.148 12.734-34.305 19.711-54.094 19.699h-504c-19.789 0.011718-38.945-6.9648-54.094-19.699-15.148-12.73-25.312-30.402-28.707-49.898l-64.801-366h799.2z"/>
  <path d="m600 963.6c9.5469 0 18.703-3.793 25.457-10.547 6.75-6.75 10.543-15.906 10.543-25.453v-228c0-12.863-6.8633-24.746-18-31.18-11.137-6.4297-24.863-6.4297-36 0-11.137 6.4336-18 18.316-18 31.18v228c0 9.5469 3.793 18.703 10.543 25.453 6.7539 6.7539 15.91 10.547 25.457 10.547z"/>
  <path d="m432 963.6c9.5469 0 18.703-3.793 25.457-10.547 6.75-6.75 10.543-15.906 10.543-25.453v-228c0-12.863-6.8633-24.746-18-31.18-11.137-6.4297-24.863-6.4297-36 0-11.137 6.4336-18 18.316-18 31.18v228c0 9.5469 3.793 18.703 10.543 25.453 6.7539 6.7539 15.91 10.547 25.457 10.547z"/>
  <path d="m768 963.6c9.5469 0 18.703-3.793 25.457-10.547 6.75-6.75 10.543-15.906 10.543-25.453v-228c0-12.863-6.8633-24.746-18-31.18-11.137-6.4297-24.863-6.4297-36 0-11.137 6.4336-18 18.316-18 31.18v228c0 9.5469 3.793 18.703 10.543 25.453 6.7539 6.7539 15.91 10.547 25.457 10.547z"/>
 </g>
</svg>
