<?xml version="1.0" encoding="UTF-8"?>
<svg width="1200pt" height="1200pt" version="1.1" viewBox="0 0 1200 1200" xmlns="http://www.w3.org/2000/svg">
 <g fill="#fff">
  <path d="m761.26 943.91c0-72.395 41.398-135.07 101.8-165.77-60.719-20.988-101.47-39.434-101.47-39.434-12.383-16.535-18.324-44.496-21.023-62.809 26.953-36.406 40.633-79.129 47.328-117.19 2.4609 1.6797 5.2578 2.8203 8.3516 2.8203 11.293 0 26.473-15.098 42.816-73.535 16.922-60.492 6.625-80.773-7.9922-85.883 47.531-230.21-61.055-237.93-61.055-237.93s-16.379-31.871-59.531-55.957c-24.996-14.965-58.453-27.047-101.36-27.047-6.7422 0-13.703 0.28906-20.914 0.92578-17.195 0.81641-33.445 4.1758-48.695 9.3945l-0.023437 0.011718c-19.512 6.6719-37.402 16.391-53.555 27.758-19.871 12.73-38.594 28.297-55.129 46.078-26.172 27.047-49.488 62.016-59.605 105.67-9.6133 37.078-9.3125 77.16 5.0273 117.9-1.2109-0.12109-2.4375-0.17969-3.6602-0.17969-18.539 0-37.547 14.594-17.195 87.336 15.852 56.676 30.625 72.574 41.797 73.488 6.2656 40.98 20.363 88.727 50.723 128.52-2.5547 16.512-7.6445 39.66-17.375 55.703-0.71875 0.35938-102.76 49.836-221.71 79.152-78.516 19.332-91.078 99.07-90.492 151.4-0.035157 6.8867 0.15625 13.379 0.49219 19.273l-0.097656-0.023437s-0.035157 2.5195-0.011719 6.7695c-0.023438 3.8984-0.011719 13.441 0.43359 25.297 143.3 66.086 304.29 103.18 474.42 103.18 83.398 0 164.59-8.9414 242.59-25.812-45.457-33.883-74.906-88.062-74.879-149.11z"/>
  <path d="m947.12 809.29c-74.34 0-134.61 60.266-134.61 134.61 0 74.34 60.266 134.61 134.61 134.61s134.61-60.266 134.61-134.61c-0.003907-74.344-60.266-134.61-134.61-134.61zm75.504 155.6h-54.504v54.504h-42v-54.504h-54.504v-42h54.504v-54.504h42v54.504h54.504z"/>
 </g>
</svg>
